<?xml version="1.0" encoding="UTF-8" standalone="no"?>
<svg
   xmlns:dc="http://purl.org/dc/elements/1.1/"
   xmlns:cc="http://creativecommons.org/ns#"
   xmlns:rdf="http://www.w3.org/1999/02/22-rdf-syntax-ns#"
   xmlns:svg="http://www.w3.org/2000/svg"
   xmlns="http://www.w3.org/2000/svg"
   xml:space="preserve"
   enable-background="new 0 0 512 512"
   viewBox="0 0 512 512"
   y="0px"
   x="0px"
   id="Layer_1"
   version="1.1"><metadata
     id="metadata4050"><rdf:RDF><cc:Work
         rdf:about=""><dc:format>image/svg+xml</dc:format><dc:type
           rdf:resource="http://purl.org/dc/dcmitype/StillImage" /><dc:title></dc:title></cc:Work></rdf:RDF></metadata><defs
     id="defs4048" /><rect
     x="0"
     y="132"
     width="440"
     height="308"
     id="rect4028"
     style="fill:#ecf0f1" /><rect
     x="0"
     y="2.2093438e-014"
     width="440"
     height="132"
     id="rect4030"
     style="fill:#546a79" /><g
     transform="matrix(0.99173554,0,0,0.99521531,0.59504132,-0.53014354)"
     id="g4032"><polygon
       points="63.2,64.8 63.2,23.3 23.6,29.3 23.6,64.8 "
       id="polygon4034"
       style="fill:#04aef4" /><polygon
       points="23.6,69.2 23.6,104.7 63.2,110.6 63.2,69.2 "
       id="polygon4036"
       style="fill:#04aef4" /><polygon
       points="67.9,69.5 67.9,111.3 120.4,119.1 120.4,69.5 "
       id="polygon4038"
       style="fill:#04aef4" /><polygon
       points="120.4,64.3 120.4,14.6 67.9,22.6 67.9,64.3 "
       id="polygon4040"
       style="fill:#04aef4" /></g><path
     style="fill:#71c386"
     id="path4042"
     d="m 511.99986,392.2585 c -0.10012,66.23524 -53.86727,119.94789 -120.15005,119.7409 -66.28277,-0.10349 -119.94979,-53.91963 -119.84967,-120.15487 0.10013,-66.23524 53.86727,-119.94788 120.15005,-119.84438 66.18265,0.10349 119.9498,53.91962 119.84967,120.25835 l 0,0 z m 0,0" /><path
     id="path4044"
     d="M452.1,386.5l-49.9-0.1l0.1-48.3c0-5.3-4.5-9.7-10-9.7c-5.5,0-10,4.3-10,9.7l-0.1,48.3l-49.9-0.1  c-5.5,0-9.9,4.3-10,9.7c0,5.3,4.4,9.7,9.9,9.7l49.9,0.1L382,454c0,5.3,4.5,9.6,10,9.6c5.5,0,10-4.3,10-9.6l0.1-48.3l49.9,0.1  c5.5,0,10-4.3,10-9.7C462.1,390.8,457.6,386.5,452.1,386.5L452.1,386.5z M452.1,386.5"
     fill="#FFFFFF" /></svg>