<?xml version="1.0" encoding="UTF-8" standalone="no"?>
<svg
   xmlns:dc="http://purl.org/dc/elements/1.1/"
   xmlns:cc="http://creativecommons.org/ns#"
   xmlns:rdf="http://www.w3.org/1999/02/22-rdf-syntax-ns#"
   xmlns:svg="http://www.w3.org/2000/svg"
   xmlns="http://www.w3.org/2000/svg"
   xmlns:inkscape="http://www.inkscape.org/namespaces/inkscape"
   version="1.1"
   id="Layer_1"
   x="0px"
   y="0px"
   viewBox="0 0 512 512"
   enable-background="new 0 0 512 512"
   xml:space="preserve"
   inkscape:version="0.91 r13725"><metadata
     id="metadata4081"><rdf:RDF><cc:Work
         rdf:about=""><dc:format>image/svg+xml</dc:format><dc:type
           rdf:resource="http://purl.org/dc/dcmitype/StillImage" /></cc:Work></rdf:RDF></metadata><defs
     id="defs4079" /><rect
     style="fill:#ecf0f1"
     id="rect4055"
     height="308"
     width="440"
     y="132"
     x="0" /><rect
     style="fill:#546a79"
     id="rect4057"
     height="132"
     width="440"
     y="8.8817842e-015"
     x="0" /><rect
     x="272"
     y="272"
     width="240.00002"
     height="240"
     id="rect4061"
     style="fill:#48a0dc"
     inkscape:export-filename="G:\gitstuff\consolezicons\80x80\rect4061.png"
     inkscape:export-xdpi="14"
     inkscape:export-ydpi="14" /><rect
     x="340"
     y="380"
     width="172"
     height="24"
     id="rect4063"
     style="fill:#ffffff" /><path
     d="M 420,335.08884 357.47281,391.94534 420,448.80182 403.26359,464 324,391.94534 403.26359,320 420,335.08884 Z m 0,0"
     id="path4065"
     inkscape:connector-curvature="0"
     style="fill:#ffffff" /><g
     id="g4067"
     transform="matrix(0.98969072,0,0,0.95940959,0.24742268,-2.4059041)"><polygon
       style="fill:#04aef4"
       id="polygon4069"
       points="63.7,26.1 24,32.4 24,69.1 63.7,69.1 " /><polygon
       style="fill:#04aef4"
       id="polygon4071"
       points="24,110.6 63.7,116.7 63.7,73.7 24,73.7 " /><polygon
       style="fill:#04aef4"
       id="polygon4073"
       points="68.4,117.4 121,125.5 121,74 68.4,74 " /><polygon
       style="fill:#04aef4"
       id="polygon4075"
       points="121,17.1 68.4,25.4 68.4,68.7 121,68.7 " /></g></svg>