<svg xmlns="http://www.w3.org/2000/svg" xmlns:svg="http://www.w3.org/2000/svg" id="Layer_1" x="0" y="0" enable-background="new 0 0 512 512" version="1.1" viewBox="0 0 512 512" xml:space="preserve"><metadata id="metadata4081"/><rect style="fill:#ecf0f1" id="rect4055" width="440" height="308" x="0" y="132"/><rect style="fill:#546a79" id="rect4057" width="440" height="132" x="0" y="0"/><rect id="rect4061" width="240" height="240" x="272" y="272" style="fill:#48a0dc"/><rect id="rect4063" width="172" height="24" x="340" y="380" style="fill:#fff"/><path id="path4065" d="M 420,335.08884 357.47281,391.94534 420,448.80182 403.26359,464 324,391.94534 403.26359,320 420,335.08884 Z m 0,0" style="fill:#fff"/><g id="g4067" transform="matrix(0.98969072,0,0,0.95940959,0.24742268,-2.4059041)"><polygon style="fill:#04aef4" id="polygon4069" points="63.7 26.1 24 32.4 24 69.1 63.7 69.1"/><polygon style="fill:#04aef4" id="polygon4071" points="24 110.6 63.7 116.7 63.7 73.7 24 73.7"/><polygon style="fill:#04aef4" id="polygon4073" points="68.4 117.4 121 125.5 121 74 68.4 74"/><polygon style="fill:#04aef4" id="polygon4075" points="121 17.1 68.4 25.4 68.4 68.7 121 68.7"/></g></svg>