<?xml version="1.0" encoding="UTF-8" standalone="no"?>
<svg
   xmlns:dc="http://purl.org/dc/elements/1.1/"
   xmlns:cc="http://creativecommons.org/ns#"
   xmlns:rdf="http://www.w3.org/1999/02/22-rdf-syntax-ns#"
   xmlns:svg="http://www.w3.org/2000/svg"
   xmlns="http://www.w3.org/2000/svg"
   xmlns:inkscape="http://www.inkscape.org/namespaces/inkscape"
   version="1.1"
   id="Layer_1"
   x="0px"
   y="0px"
   viewBox="0 0 512 512"
   enable-background="new 0 0 512 512"
   xml:space="preserve"
   inkscape:version="0.91 r13725"><metadata
     id="metadata4132"><rdf:RDF><cc:Work
         rdf:about=""><dc:format>image/svg+xml</dc:format><dc:type
           rdf:resource="http://purl.org/dc/dcmitype/StillImage" /><dc:title></dc:title></cc:Work></rdf:RDF></metadata><defs
     id="defs4130" /><polygon
     points="442.3,455 -2,455 -0.5,120.4 443.8,120.4 "
     id="polygon4106"
     style="fill:#ecf0f1"
     transform="matrix(0.98698968,0,0,0.92050209,1.9739794,21.171548)" /><rect
     y="-2.9309888e-014"
     width="440"
     height="132"
     id="rect4108"
     x="0"
     style="fill:#546a79" /><rect
     style="fill:#21ae5e"
     id="rect4112"
     height="240.00002"
     width="240"
     y="272.00009"
     x="272" /><rect
     style="fill:#ffffff"
     id="rect4114"
     height="24"
     width="172"
     y="380"
     x="272" /><path
     style="fill:#ffffff"
     inkscape:connector-curvature="0"
     id="path4116"
     d="M 460,392 380.62788,464 364,448.83117 426.61434,392 364,335.16883 380.62788,320 460,392 Z m 0,0" /><g
     id="g4118"
     transform="matrix(0.95904096,0,0,0.95150961,-1.5104895,1.820677)"><polygon
       points="26.6,28.2 26.6,65.3 67.5,65.3 67.5,21.9 "
       id="polygon4120"
       style="fill:#04aef4" /><polygon
       points="67.5,113.2 67.5,69.9 26.6,69.9 26.6,107 "
       id="polygon4122"
       style="fill:#04aef4" /><polygon
       points="126.7,122.1 126.7,70.2 72.4,70.2 72.4,113.9 "
       id="polygon4124"
       style="fill:#04aef4" /><polygon
       points="72.4,21.2 72.4,64.8 126.7,64.8 126.7,12.8 "
       id="polygon4126"
       style="fill:#04aef4" /></g></svg>