<svg xmlns="http://www.w3.org/2000/svg" xmlns:svg="http://www.w3.org/2000/svg" id="Layer_1" x="0" y="0" enable-background="new 0 0 512 512" version="1.1" viewBox="0 0 512 512" xml:space="preserve"><metadata id="metadata4132"/><polygon id="polygon4106" points="442.3 455 -2 455 -.5 120.4 443.8 120.4" transform="matrix(0.98698968,0,0,0.92050209,1.9739794,21.171548)" style="fill:#ecf0f1"/><rect id="rect4108" width="440" height="132" x="0" y="0" style="fill:#546a79"/><rect style="fill:#21ae5e" id="rect4112" width="240" height="240" x="272" y="272"/><rect style="fill:#fff" id="rect4114" width="172" height="24" x="272" y="380"/><path style="fill:#fff" id="path4116" d="M 460,392 380.62788,464 364,448.83117 426.61434,392 364,335.16883 380.62788,320 460,392 Z m 0,0"/><g id="g4118" transform="matrix(0.95904096,0,0,0.95150961,-1.5104895,1.820677)"><polygon id="polygon4120" points="26.6 28.2 26.6 65.3 67.5 65.3 67.5 21.9" style="fill:#04aef4"/><polygon id="polygon4122" points="67.5 113.2 67.5 69.9 26.6 69.9 26.6 107" style="fill:#04aef4"/><polygon id="polygon4124" points="126.7 122.1 126.7 70.2 72.4 70.2 72.4 113.9" style="fill:#04aef4"/><polygon id="polygon4126" points="72.4 21.2 72.4 64.8 126.7 64.8 126.7 12.8" style="fill:#04aef4"/></g></svg>