<?xml version="1.0" encoding="UTF-8" standalone="no"?>
<svg
   xmlns:dc="http://purl.org/dc/elements/1.1/"
   xmlns:cc="http://creativecommons.org/ns#"
   xmlns:rdf="http://www.w3.org/1999/02/22-rdf-syntax-ns#"
   xmlns:svg="http://www.w3.org/2000/svg"
   xmlns="http://www.w3.org/2000/svg"
   xmlns:xlink="http://www.w3.org/1999/xlink"
   xmlns:inkscape="http://www.inkscape.org/namespaces/inkscape"
   version="1.1"
   id="Layer_1"
   x="0px"
   y="0px"
   viewBox="0 0 512 512"
   enable-background="new 0 0 512 512"
   xml:space="preserve"
   inkscape:version="0.91 r13725"><metadata
     id="metadata4204"><rdf:RDF><cc:Work
         rdf:about=""><dc:format>image/svg+xml</dc:format><dc:type
           rdf:resource="http://purl.org/dc/dcmitype/StillImage" /></cc:Work></rdf:RDF></metadata><defs
     id="defs4202" /><rect
     x="0"
     y="132"
     width="440"
     height="308"
     id="rect4164"
     style="fill:#ecf0f1" /><rect
     x="0"
     y="-8.2600593e-014"
     width="440"
     height="132"
     id="rect4166"
     style="fill:#546a79" /><g
     id="g4188"
     transform="matrix(0.97959184,0,0,1.0348259,-4.7020408,0.23681592)"><polygon
       points="69.3,21.6 29.3,27.4 29.3,61.5 69.3,61.5 "
       id="polygon4190"
       style="fill:#04aef4" /><polygon
       points="29.3,99.9 69.3,105.6 69.3,65.7 29.3,65.7 "
       id="polygon4192"
       style="fill:#04aef4" /><polygon
       points="74.1,106.3 127.3,113.8 127.3,66 74.1,66 "
       id="polygon4194"
       style="fill:#04aef4" /><polygon
       points="127.3,13.3 74.1,20.9 74.1,61.1 127.3,61.1 "
       id="polygon4196"
       style="fill:#04aef4" /></g><g
     id="g4244"
     transform="matrix(1.0647737,0,0,1.0424585,-31.64684,-0.36835275)"><path
       d="M 491.1,278 480,266.6 c -6.9,-7.1 -18.1,-7.1 -25,0 l -32,32.6 23.6,24.1 44.5,-45.3 z m 0,0"
       id="path4160"
       inkscape:connector-curvature="0"
       style="fill:#d75a4a" /><path
       style="fill:#eddcc7"
       inkscape:connector-curvature="0"
       id="path4168"
       d="m 319.4,405 0,0 -17.8,66.5 41.5,-42.3 -23.7,-24.2 z m 0,0" /><path
       style="fill:#f29c21"
       inkscape:connector-curvature="0"
       id="path4170"
       d="M 423,299.2 446.6,323.3 343.1,429.2 319.4,405 423,299.2 Z m 0,0" /><g
       id="g4172"><defs
         id="defs4174"><rect
           height="511"
           width="511"
           y="-8.6000004"
           x="-0.2"
           id="SVGID_1_" /></defs><clipPath
         id="SVGID_2_"><use
           height="100%"
           width="100%"
           y="0"
           x="0"
           style="overflow:visible"
           id="use4178"
           overflow="visible"
           xlink:href="#SVGID_1_" /></clipPath><path
         style="fill:#d6c4b1"
         inkscape:connector-curvature="0"
         id="path4180"
         d="m 369.8,456.6 0,0 -26.7,-27.4 -41.5,42.3 -1.2,4.5 69.4,-19.4 z m 0,0"
         clip-path="url(#SVGID_2_)" /><path
         style="fill:#a34740"
         inkscape:connector-curvature="0"
         id="path4182"
         d="m 473.4,350.8 32,-32.6 c 6.9,-7.1 6.9,-18.5 0,-25.6 l -14.3,-14.6 -44.5,45.4 26.8,27.4 z m 0,0"
         clip-path="url(#SVGID_2_)" /></g><path
       style="fill:#e18c25"
       inkscape:connector-curvature="0"
       id="path4184"
       d="m 369.9,456.6 -26.8,-27.4 103.5,-105.8 26.8,27.4 -103.5,105.8 z m 0,0" /><path
       style="fill:#5e5e5e"
       inkscape:connector-curvature="0"
       id="path4186"
       d="m 294.1,491.5 c -2.3,0 -4.5,-0.9 -6.3,-2.7 -3.5,-3.6 -3.5,-9.3 0,-12.9 l 19.7,-20.1 c 3.5,-3.6 9.1,-3.6 12.6,0 3.5,3.6 3.5,9.3 0,12.9 l -19.7,20.1 c -1.7,1.8 -4,2.7 -6.3,2.7 l 0,0 z m 0,0" /><path
       id="path4198"
       d="m 490.8,278.3 -11.7,-10.7 c -7.2,-6.7 -18.8,-6.4 -25.7,0.6 l -32.1,32.3 24.8,22.7 44.7,-44.9 z m 0,0"
       inkscape:connector-curvature="0"
       style="fill:#d75a4a" /></g></svg>