<svg xmlns="http://www.w3.org/2000/svg" xmlns:svg="http://www.w3.org/2000/svg" id="Layer_1" x="0" y="0" enable-background="new 0 0 512 512" version="1.1" viewBox="0 0 512 512" xml:space="preserve"><metadata id="metadata4845"/><path style="fill:#efebde;stroke:#d5d0bb;stroke-opacity:1;stroke-width:16;stroke-miterlimit:4;stroke-dasharray:none;stroke-linejoin:miter" id="path4811" d="m 385.8,0.5 -384.9,0 0,444 265.1,0 119.7,-107.2 0,-336.8 z m 0,336.8"/><path style="fill:#322d1a;fill-opacity:1" id="path4813" d="m 86.5,268.4 c -4.7,0 -8.6,3.4 -8.6,7.6 0,4.3 3.8,7.7 8.6,7.7 l 213.8,0 c 4.7,0 8.6,-3.4 8.6,-7.7 0,-4.2 -3.8,-7.6 -8.6,-7.6 l -213.8,0 0,0 z m 0,0"/><path style="fill:#322d1a;fill-opacity:1" id="path4815" d="m 86.5,329.6 c -4.7,0 -8.6,3.4 -8.6,7.7 0,4.2 3.8,7.7 8.6,7.7 l 85.5,0 c 4.7,0 8.6,-3.4 8.6,-7.7 0,-4.2 -3.8,-7.7 -8.6,-7.7 l -85.5,0 0,0 z m 0,0"/><path style="fill:#322d1a;fill-opacity:1" id="path4817" d="m 300.3,222.5 c 4.7,0 8.6,-3.4 8.6,-7.7 0,-4.2 -3.8,-7.7 -8.6,-7.7 l -213.8,0 c -4.7,0 -8.6,3.4 -8.6,7.7 0,4.2 3.8,7.7 8.6,7.7 l 213.8,0 0,0 z m 0,0"/><path style="fill:#322d1a;fill-opacity:1" id="path4819" d="m 300.3,161.2 c 4.7,0 8.6,-3.4 8.6,-7.6 0,-4.3 -3.8,-7.7 -8.6,-7.7 l -213.8,0 c -4.7,0 -8.6,3.4 -8.6,7.7 0,4.2 3.8,7.6 8.6,7.6 l 213.8,0 0,0 z m 0,0"/><path style="fill:#322d1a;fill-opacity:1" id="path4821" d="m 300.3,100 c 4.7,0 8.6,-3.4 8.6,-7.7 0,-4.2 -3.8,-7.7 -8.6,-7.7 l -213.8,0 c -4.7,0 -8.6,3.4 -8.6,7.7 0,4.2 3.8,7.7 8.6,7.7 l 213.8,0 0,0 z m 0,0"/><path style="fill:#d5d0bb" id="path4823" d="m 385.8,337.3 -119.7,0 0,107.2 119.7,-107.2 z M 266.1,444.5"/><path style="fill:#efebde;stroke:#d5d0bb;stroke-opacity:1;stroke-width:16;stroke-miterlimit:4;stroke-dasharray:none;stroke-linejoin:miter" id="path4827" d="m 511.9,67.4 -384.8,0 0,444 265.1,0 119.7,-107.2 0,-336.8 z m 0,336.9"/><path style="fill:#322d1a;fill-opacity:1" id="path4829" d="m 212.6,335.4 c -4.7,0 -8.6,3.4 -8.6,7.6 0,4.3 3.8,7.7 8.6,7.7 l 213.8,0 c 4.7,0 8.6,-3.4 8.6,-7.7 0,-4.2 -3.8,-7.6 -8.6,-7.6 l -213.8,0 0,0 z m 0,0"/><path style="fill:#322d1a;fill-opacity:1" id="path4831" d="m 212.6,396.6 c -4.7,0 -8.6,3.4 -8.6,7.7 0,4.2 3.8,7.7 8.6,7.7 l 85.5,0 c 4.7,0 8.6,-3.4 8.6,-7.7 0,-4.2 -3.8,-7.7 -8.6,-7.7 l -85.5,0 0,0 z m 0,0"/><path style="fill:#322d1a;fill-opacity:1" id="path4833" d="m 426.4,289.4 c 4.7,0 8.6,-3.4 8.6,-7.7 0,-4.2 -3.8,-7.7 -8.6,-7.7 l -213.8,0 c -4.7,0 -8.6,3.4 -8.6,7.7 0,4.2 3.8,7.7 8.6,7.7 l 213.8,0 0,0 z m 0,0"/><path style="fill:#322d1a;fill-opacity:1" id="path4835" d="m 426.4,228.2 c 4.7,0 8.6,-3.4 8.6,-7.6 0,-4.3 -3.8,-7.7 -8.6,-7.7 l -213.8,0 c -4.7,0 -8.6,3.4 -8.6,7.7 0,4.2 3.8,7.6 8.6,7.6 l 213.8,0 0,0 z m 0,0"/><path style="fill:#322d1a;opacity:1;fill-opacity:1" id="path4837" d="m 426.4,166.9 c 4.7,0 8.6,-3.4 8.6,-7.7 0,-4.2 -3.8,-7.7 -8.6,-7.7 l -213.8,0 c -4.7,0 -8.6,3.4 -8.6,7.7 0,4.2 3.8,7.7 8.6,7.7 l 213.8,0 0,0 z m 0,0"/><path style="fill:#d5d0bb" id="path4839" d="m 511.9,404.3 -119.7,0 0,107.2 119.7,-107.2 z M 392.2,511.5"/></svg>