<?xml version="1.0" encoding="UTF-8" standalone="no"?>
<svg
   xmlns:dc="http://purl.org/dc/elements/1.1/"
   xmlns:cc="http://creativecommons.org/ns#"
   xmlns:rdf="http://www.w3.org/1999/02/22-rdf-syntax-ns#"
   xmlns:svg="http://www.w3.org/2000/svg"
   xmlns="http://www.w3.org/2000/svg"
   xmlns:inkscape="http://www.inkscape.org/namespaces/inkscape"
   version="1.1"
   id="Layer_1"
   x="0px"
   y="0px"
   viewBox="0 0 512 512"
   enable-background="new 0 0 512 512"
   xml:space="preserve"
   inkscape:version="0.91 r13725"><metadata
     id="metadata4884"><rdf:RDF><cc:Work
         rdf:about=""><dc:format>image/svg+xml</dc:format><dc:type
           rdf:resource="http://purl.org/dc/dcmitype/StillImage" /><dc:title></dc:title></cc:Work></rdf:RDF></metadata><defs
     id="defs4882" /><path
     d="m 291.7,17.8 -36.4,-0.1 0,26.4 -81.9,-0.1 0,-26.4 L 0.6,17.4 0,510.1 427.6,510.8 428.1,18 291.7,17.8 Z m 0,0"
     id="path4852"
     inkscape:connector-curvature="0"
     style="fill:#545e73" /><polygon
     points="173.4,0 255.3,0.1 255.2,44.1 173.4,44 "
     id="polygon4854"
     style="fill:#404656" /><path
     d="m 318.9,44.2 0,26.4 -209.2,-0.3 0,-26.4 -81.9,-0.1 -0.5,440 373,0.6 0.5,-440 -81.9,-0.2 z m 0,0"
     id="path4856"
     inkscape:connector-curvature="0"
     style="fill:#efebde" /><path
     d="m 256.5,17.8 0,26.4 -81.8,-0.2 0,-26.4 -63.7,0 0,52.7 209.2,0.3 0.1,-52.8 -63.8,0 z m 0,0"
     id="path4858"
     inkscape:connector-curvature="0"
     style="fill:#8697cb" /><path
     d="M 200.6,140.9 82.3,140.7 c -5,0 -9.1,-4 -9.1,-8.8 0,-4.9 4.1,-8.8 9.1,-8.8 l 118.3,0.2 c 5,0 9,4 9,8.8 0,4.8 -4,8.8 -9,8.8 l 0,0 z m 0,0"
     id="path4860"
     inkscape:connector-curvature="0"
     style="fill:#322d1a;fill-opacity:1" /><path
     d="M 200.3,413.7 82,413.5 c -5,0 -9.1,-4 -9.1,-8.8 0,-4.9 4.1,-8.8 9.1,-8.8 l 118.3,0.2 c 5,0 9,4 9,8.8 0,4.8 -4,8.8 -9,8.8 l 0,0 z m 0,0"
     id="path4862"
     inkscape:connector-curvature="0"
     style="fill:#322d1a;fill-opacity:1" /><path
     d="M 346,193.9 82.2,193.5 c -5,0 -9.1,-4 -9.1,-8.8 0,-4.9 4.1,-8.8 9.1,-8.8 l 263.8,0.4 c 5.1,0 9.1,4 9.1,8.8 0,4.9 -4,8.8 -9.1,8.8 l 0,0 z m 0,0"
     id="path4864"
     inkscape:connector-curvature="0"
     style="fill:#322d1a;fill-opacity:1" /><path
     d="M 345.9,299.5 82.1,299.1 c -5,0 -9.1,-3.9 -9.1,-8.8 0,-4.9 4.1,-8.8 9.1,-8.7 l 263.8,0.4 c 5.1,0 9.1,3.9 9.1,8.8 0,4.8 -4,8.7 -9.1,8.7 l 0,0 z m 0,0"
     id="path4866"
     inkscape:connector-curvature="0"
     style="fill:#322d1a;fill-opacity:1" /><path
     d="M 345.8,361.1 82,360.7 c -5,0 -9.1,-4 -9.1,-8.8 0,-4.8 4.1,-8.8 9.1,-8.8 l 263.8,0.4 c 5.1,0 9.1,4 9.1,8.8 0,4.9 -4,8.8 -9.1,8.8 l 0,0 z m 0,0"
     id="path4868"
     inkscape:connector-curvature="0"
     style="fill:#322d1a;fill-opacity:1" /><path
     d="M 209.5,246.5 82.2,246.3 c -5,0 -9.1,-3.9 -9.1,-8.8 0,-4.9 4.1,-8.8 9.1,-8.8 l 127.3,0.2 c 5.1,0 9.1,3.9 9.1,8.8 0,4.9 -4,8.8 -9.1,8.8 l 0,0 z m 0,0"
     id="path4870"
     inkscape:connector-curvature="0"
     style="fill:#322d1a;fill-opacity:1" /><path
     d="m 345.9,246.7 -63.6,-0.1 c -5,0 -9.1,-3.9 -9.1,-8.8 0,-4.9 4.1,-8.8 9.1,-8.8 l 63.6,0.1 c 5.1,0 9.1,3.9 9.1,8.8 0.1,4.9 -4,8.8 -9.1,8.8 l 0,0 z m 0,0"
     id="path4872"
     inkscape:connector-curvature="0"
     style="fill:#322d1a;fill-opacity:1" /><path
     d="m 245.9,246.5 c -2.5,0 -4.8,-0.9 -6.5,-2.5 -1.6,-1.7 -2.6,-4 -2.6,-6.2 0,-2.4 0.9,-4.6 2.6,-6.3 3.5,-3.3 9.5,-3.3 12.9,0 1.7,1.7 2.6,3.9 2.6,6.3 0,2.4 -1,4.6 -2.6,6.2 -1.7,1.6 -3.9,2.5 -6.4,2.5 l 0,0 z m 0,0"
     id="path4874"
     inkscape:connector-curvature="0"
     style="fill:#322d1a;fill-opacity:1" /><g
     id="g4915"
     transform="matrix(1.0217101,0,0,1.0558719,-9.8896784,-27.339536)"><path
       style="fill:#71c386"
       inkscape:connector-curvature="0"
       id="path4876"
       d="M 510.8,397.4 C 510.7,460.1 458,510.9 393.2,510.8 328.3,510.7 275.8,459.8 275.9,397 276,334.3 328.6,283.4 393.4,283.5 c 64.9,0.1 117.5,51.1 117.4,113.9 l 0,0 z m 0,0" /><path
       style="fill:#ffffff"
       inkscape:connector-curvature="0"
       id="path4878"
       d="m 452.1,387.8 -48.9,-0.1 0.1,-47.3 c 0,-5.2 -4.4,-9.5 -9.8,-9.5 -5.4,0 -9.8,4.2 -9.8,9.5 l -0.1,47.3 -48.9,-0.1 c -5.4,0 -9.7,4.2 -9.7,9.5 0,5.2 4.3,9.5 9.7,9.5 l 48.9,0.1 -0.1,47.3 c 0,5.2 4.4,9.4 9.8,9.4 5.4,0 9.8,-4.2 9.8,-9.4 l 0.1,-47.3 48.9,0.1 c 5.4,0 9.8,-4.2 9.8,-9.5 0,-5.2 -4.4,-9.5 -9.8,-9.5 l 0,0 z m 0,0" /></g></svg>