<svg xmlns="http://www.w3.org/2000/svg" xmlns:svg="http://www.w3.org/2000/svg" id="Layer_1" x="0" y="0" enable-background="new 0 0 250 250" version="1.1" viewBox="0 0 512 512" xml:space="preserve"><metadata id="metadata4992"/><g id="g4994" transform="matrix(2.0562249,0,0,2.0562249,0,-540.78715)"><g id="g4920" transform="translate(-0.5,262.5)"><g id="g4922"><g id="g4924"><linearGradient id="SVGID_1_" x1="311.962" x2="871.634" y1="-43.79" y2="239.299" gradientTransform="matrix(-1,0,0,1,797.5625,0)" gradientUnits="userSpaceOnUse"><stop id="stop4927" offset="0" style="stop-color:#bedfee"/><stop id="stop4929" offset=".479" style="stop-color:#57beb7"/><stop id="stop4931" offset="1" style="stop-color:#183f6d"/></linearGradient><polygon style="fill:url(#SVGID_1_)" id="polygon4933" points="249.5 113 160.9 .5 108.8 110.6 196.8 222.2"/><linearGradient id="SVGID_2_" x1="545.336" x2="730.966" y1="-558.592" y2="336.148" gradientTransform="matrix(-1,0,0,1,797.5625,0)" gradientUnits="userSpaceOnUse"><stop id="stop4936" offset="0" style="stop-color:#bedfee"/><stop id="stop4938" offset=".479" style="stop-color:#57beb7"/><stop id="stop4940" offset="1" style="stop-color:#183f6d"/></linearGradient><polygon style="fill:url(#SVGID_2_)" id="polygon4942" points="196.8 222.2 108.8 110.6 .5 141.2 97.5 249.5"/><linearGradient id="SVGID_3_" x1="722.051" x2="607.035" y1="265.644" y2="-151.756" gradientTransform="matrix(-1,0,0,1,797.5625,0)" gradientUnits="userSpaceOnUse"><stop id="stop4945" offset="0" style="stop-color:#fff"/><stop id="stop4947" offset="1" style="stop-color:#000"/></linearGradient><polygon style="fill:url(#SVGID_3_)" id="polygon4949" points="196.8 222.2 108.8 110.6 .5 141.2 97.5 249.5"/><linearGradient id="SVGID_4_" x1="718.596" x2="689.505" y1="52.303" y2="359.832" gradientTransform="matrix(-1,0,0,1,797.5625,0)" gradientUnits="userSpaceOnUse"><stop id="stop4952" offset="0" style="stop-color:#bedfee"/><stop id="stop4954" offset=".479" style="stop-color:#57beb7"/><stop id="stop4956" offset="1" style="stop-color:#183f6d"/></linearGradient><polygon style="fill:url(#SVGID_4_)" id="polygon4958" points="108.8 110.6 160.9 .5 45.9 33.3 .5 141.2"/></g></g><g id="g4960"><g id="g4962"><path style="fill:#fff" id="path4964" d="m 77.9,129.6 31.9,4.3 0.1,0 -10.4,-10.9 2.8,-1 13.7,14.5 -2,0.7 -31.7,-4.3 -0.1,0 11.3,12 -2.7,1 -14.8,-15.6 1.9,-0.7 z"/><path style="fill:#fff" id="path4966" d="m 121.5,150.1 -8.9,3.3 6.6,7.2 -2.3,0.8 -6.6,-7.2 -8.8,3.3 -1.9,-2 8.8,-3.3 -6.7,-7.2 2.2,-0.8 6.7,7.2 8.9,-3.3 2,2 z"/><path style="fill:#fff" id="path4968" d="m 115.6,165.2 2.2,-0.8 14.7,16.4 -2.2,0.8 -14.7,-16.4 z m 7.4,-2.7 2.3,-0.8 14.7,16.4 -2.3,0.8 -14.7,-16.4 z"/><path style="fill:#fff" id="path4970" d="m 149.6,198.4 -21.6,-11.5 2.6,-1 18.2,9.8 0.1,0 -3.5,-15.2 2.6,-1 3.8,18 -2.2,0.9 z"/><path style="fill:#fff" id="path4972" d="m 153.1,220.7 -1.8,0.7 -13.3,-15.9 1.8,-0.7 13.3,15.9 z"/></g></g></g><g id="g4974" transform="translate(0,262)"><g id="g4976"><path style="fill:#fff" id="path4978" d="m 154.9,43.3 27,3.1 0.1,0 -9.1,-9.4 2.3,-1 12.2,12.6 -1.7,0.7 -27,-3.3 -0.1,0 9.9,10.2 -2.3,0.9 -12.9,-13.1 1.6,-0.7 z"/><path style="fill:#fff" id="path4980" d="m 192.6,60.9 -7.5,2.9 6.1,6.6 -1.9,0.7 -6.1,-6.6 -7.5,2.8 -1.7,-1.8 7.5,-2.8 -6,-6.4 1.9,-0.7 6,6.4 7.5,-2.9 1.7,1.8 z"/><path style="fill:#fff" id="path4982" d="m 188.3,74.6 1.9,-0.7 13.9,15.6 -2,0.6 -13.8,-15.5 z m 6.3,-2.3 1.9,-0.7 14,15.7 -2,0.7 -13.9,-15.7 z"/><path style="fill:#fff" id="path4984" d="m 220.9,107.1 -20.5,-12.2 2.2,-0.7 17.2,10.4 0.1,0 -4.3,-14.6 2.3,-0.8 4.9,17.4 -1.9,0.5 z"/><path style="fill:#fff" id="path4986" d="m 226,128.6 -1.7,0.4 -13.6,-16.3 1.6,-0.5 13.7,16.4 z"/></g></g></g></svg>