<?xml version="1.0" encoding="UTF-8" standalone="no"?>
<svg
   xmlns:dc="http://purl.org/dc/elements/1.1/"
   xmlns:cc="http://creativecommons.org/ns#"
   xmlns:rdf="http://www.w3.org/1999/02/22-rdf-syntax-ns#"
   xmlns:svg="http://www.w3.org/2000/svg"
   xmlns="http://www.w3.org/2000/svg"
   xmlns:inkscape="http://www.inkscape.org/namespaces/inkscape"
   version="1.1"
   id="Layer_1"
   x="0px"
   y="0px"
   viewBox="0 0 512 512"
   enable-background="new 0 0 512 512"
   xml:space="preserve"
   inkscape:version="0.91 r13725"><metadata
     id="metadata4288"><rdf:RDF><cc:Work
         rdf:about=""><dc:format>image/svg+xml</dc:format><dc:type
           rdf:resource="http://purl.org/dc/dcmitype/StillImage" /></cc:Work></rdf:RDF></metadata><defs
     id="defs4286" /><rect
     x="0"
     y="132"
     width="440"
     height="308"
     id="rect4264"
     style="fill:#ecf0f1" /><rect
     x="0"
     y="2.2093438e-014"
     width="440"
     height="132"
     id="rect4266"
     style="fill:#546a79" /><rect
     x="0"
     y="278"
     width="440"
     height="16"
     id="rect4268"
     style="fill:#29abe2" /><g
     id="g4270"
     transform="matrix(0.99071207,0,0,0.99521531,-0.86687307,-0.43062201)"><polygon
       points="64.7,23.2 25.1,29.2 25.1,64.6 64.7,64.6 "
       id="polygon4272"
       style="fill:#04aef4" /><polygon
       points="25.1,104.5 64.7,110.4 64.7,69 25.1,69 "
       id="polygon4274"
       style="fill:#04aef4" /><polygon
       points="69.4,111.1 122,119 122,69.3 69.4,69.3 "
       id="polygon4276"
       style="fill:#04aef4" /><polygon
       points="122,14.5 69.4,22.5 69.4,64.2 122,64.2 "
       id="polygon4278"
       style="fill:#04aef4" /></g><path
     d="M 511.99986,392.15755 C 511.89829,458.43317 458.06845,512.10488 391.84758,511.99984 325.62671,511.89481 272,458.11807 272,391.84245 c 0.10157,-66.27563 53.82985,-119.94733 120.05071,-119.8423 66.32243,0 120.05071,53.88177 119.94915,120.1574 l 0,0 z m 0,0"
     id="path4280"
     inkscape:connector-curvature="0"
     style="fill:#71c386" /><path
     fill="#FFFFFF"
     d="M452.9,388.3l-49.2-0.1l0.1-47.6c0-5.3-4.4-9.5-9.8-9.6c-5.4,0-9.9,4.3-9.9,9.5l-0.1,47.6l-49.2-0.1  c-5.4,0-9.8,4.3-9.8,9.5c0,5.3,4.4,9.5,9.8,9.6l49.2,0.1l-0.1,47.6c0,5.3,4.4,9.5,9.8,9.5c5.4,0,9.9-4.2,9.9-9.5l0.1-47.6l49.2,0.1  c5.4,0,9.9-4.3,9.9-9.5C462.8,392.6,458.4,388.3,452.9,388.3L452.9,388.3z M452.9,388.3"
     id="path4282" /></svg>