<?xml version="1.0" encoding="UTF-8" standalone="no"?>
<svg
   xmlns:dc="http://purl.org/dc/elements/1.1/"
   xmlns:cc="http://creativecommons.org/ns#"
   xmlns:rdf="http://www.w3.org/1999/02/22-rdf-syntax-ns#"
   xmlns:svg="http://www.w3.org/2000/svg"
   xmlns="http://www.w3.org/2000/svg"
   xmlns:inkscape="http://www.inkscape.org/namespaces/inkscape"
   version="1.1"
   id="Layer_1"
   x="0px"
   y="0px"
   viewBox="0 0 512 512"
   enable-background="new 0 0 256 256"
   xml:space="preserve"
   inkscape:version="0.91 r13725"><metadata
     id="metadata4345"><rdf:RDF><cc:Work
         rdf:about=""><dc:format>image/svg+xml</dc:format><dc:type
           rdf:resource="http://purl.org/dc/dcmitype/StillImage" /><dc:title></dc:title></cc:Work></rdf:RDF></metadata><defs
     id="defs4343" /><rect
     y="132"
     width="440"
     height="308"
     id="rect4321"
     x="0"
     style="fill:#ecf0f1" /><rect
     width="440"
     height="132"
     id="rect4323"
     x="0"
     y="0"
     style="fill:#546a79" /><rect
     x="212"
     y="132"
     width="16"
     height="308"
     id="rect4325"
     style="fill:#29abe2" /><g
     id="g4327"
     transform="matrix(1.9834711,0,0,1.9961612,-1.5867769,0.02687)"><polygon
       points="12.9,32 32.7,32 32.7,11.3 12.9,14.3 "
       id="polygon4329"
       style="fill:#04aef4" /><polygon
       points="32.7,34.2 12.9,34.2 12.9,51.9 32.7,54.8 "
       id="polygon4331"
       style="fill:#04aef4" /><polygon
       points="61.3,34.3 35,34.3 35,55.1 61.3,59.1 "
       id="polygon4333"
       style="fill:#04aef4" /><polygon
       points="35,31.7 61.3,31.7 61.3,7 35,10.9 "
       id="polygon4335"
       style="fill:#04aef4" /></g><g
     id="g4347"
     transform="matrix(2.0270174,0,0,2.0960699,-6.5116167,-24.59389)"><path
       id="path4337"
       d="m 255.8,198.8 c 0,31.6 -26.6,57.2 -59.3,57.2 -32.7,-0.1 -59.2,-25.7 -59.1,-57.3 0,-31.6 26.6,-57.2 59.2,-57.2 32.8,0 59.3,25.7 59.2,57.3 l 0,0 z m 0,0"
       inkscape:connector-curvature="0"
       style="fill:#71c386" /><path
       id="path4339"
       d="m 226.2,194 -24.7,0 0,-23.9 c 0,-2.6 -2.2,-4.8 -4.9,-4.8 -2.7,0 -4.9,2.1 -4.9,4.8 l 0,23.9 -24.7,0 c -2.7,0 -4.9,2.1 -4.9,4.8 0,2.6 2.2,4.8 4.9,4.8 l 24.7,0 0,23.9 c 0,2.6 2.2,4.8 4.9,4.8 2.7,0 4.9,-2.1 4.9,-4.7 l 0,-23.9 24.7,0 c 2.7,0 4.9,-2.1 4.9,-4.8 0.1,-2.7 -2.2,-4.9 -4.9,-4.9 l 0,0 z m 0,0"
       inkscape:connector-curvature="0"
       style="fill:#ffffff" /></g></svg>