<svg xmlns="http://www.w3.org/2000/svg" xmlns:svg="http://www.w3.org/2000/svg" xmlns:xlink="http://www.w3.org/1999/xlink" id="Layer_1" x="0" y="0" enable-background="new 0 0 512 512" version="1.1" viewBox="0 0 512 512" xml:space="preserve"><metadata id="metadata4519"/><defs id="defs4517"><defs id="defs4491"><rect id="SVGID_1_" width="348.3" height="295.6" x="81.7" y="129.6"/></defs><clipPath id="SVGID_2_"><use id="use4495" width="100%" height="100%" x="0" y="0" overflow="visible" xlink:href="#SVGID_1_" style="overflow:visible"/></clipPath></defs><rect style="fill:#ecf0f1" id="rect4483" width="512" height="308" x="0" y="132"/><rect style="fill:#546a79" id="rect4485" width="512" height="132" x="0" y="0"/><g id="g4555" transform="matrix(1.0112037,0,0,0.97461931,-2.6153423,15.689331)"><path id="path4487" d="m 198,302.1 -78.9,68 0,-48.6 -37.4,0 0,103.6 120.3,0 0,-32.2 -56.4,0 78.9,-68 -26.5,-22.8 z m 0,0" style="fill:#29abe2"/><path style="fill:#29abe2" id="path4497" d="m 392.3,370.1 -78.9,-68 -26.4,22.8 78.9,68 -56.4,0 0,32.2 120.3,0 0,-103.6 -37.4,0 0,48.6 z m 0,0" clip-path="url(#SVGID_2_)"/><path style="fill:#29abe2" id="path4499" d="m 309.4,129.5 0,32.2 56.4,0 -78.9,68 26.4,22.8 78.9,-68 0,48.6 37.4,0 0,-103.6 -120.2,0 z m 0,0" clip-path="url(#SVGID_2_)"/><path style="fill:#29abe2" id="path4501" d="m 202,161.7 0,-32.2 -120.3,0 0,103.6 37.4,0 0,-48.6 78.9,68 26.4,-22.8 -78.9,-68 56.5,0 z m 0,0" clip-path="url(#SVGID_2_)"/></g><rect style="fill:#b1d3ef" id="rect4503" width="512" height="20" x="0" y="492"/><g id="g4505" transform="matrix(0.85257549,0,0,1.0677618,-8.9094139,0.75975359)"><polygon style="fill:#04aef4" id="polygon4507" points="38.6 26.1 38.6 59.1 84.7 59.1 84.7 20.5"/><polygon style="fill:#04aef4" id="polygon4509" points="84.7 101.9 84.7 63.3 38.6 63.3 38.6 96.4"/><polygon style="fill:#04aef4" id="polygon4511" points="151.2 109.8 151.2 63.5 90.1 63.5 90.1 102.5"/><polygon style="fill:#04aef4" id="polygon4513" points="90.1 19.8 90.1 58.7 151.2 58.7 151.2 12.4"/></g></svg>