<?xml version="1.0" encoding="UTF-8" standalone="no"?>
<svg
   xmlns:dc="http://purl.org/dc/elements/1.1/"
   xmlns:cc="http://creativecommons.org/ns#"
   xmlns:rdf="http://www.w3.org/1999/02/22-rdf-syntax-ns#"
   xmlns:svg="http://www.w3.org/2000/svg"
   xmlns="http://www.w3.org/2000/svg"
   xmlns:xlink="http://www.w3.org/1999/xlink"
   xmlns:inkscape="http://www.inkscape.org/namespaces/inkscape"
   version="1.1"
   id="Layer_1"
   x="0px"
   y="0px"
   viewBox="0 0 512 512"
   enable-background="new 0 0 512 512"
   xml:space="preserve"
   inkscape:version="0.91 r13725"><metadata
     id="metadata4600"><rdf:RDF><cc:Work
         rdf:about=""><dc:format>image/svg+xml</dc:format><dc:type
           rdf:resource="http://purl.org/dc/dcmitype/StillImage" /></cc:Work></rdf:RDF></metadata><defs
     id="defs4598"><defs
       id="defs4572"><rect
         id="SVGID_1_"
         x="81.699997"
         y="129.60001"
         width="348.29999"
         height="295.60001" /></defs><clipPath
       id="SVGID_2_"><use
         xlink:href="#SVGID_1_"
         overflow="visible"
         id="use4576"
         style="overflow:visible"
         x="0"
         y="0"
         width="100%"
         height="100%" /></clipPath></defs><rect
     style="fill:#ecf0f1"
     id="rect4564"
     height="308"
     width="512"
     y="132"
     x="0" /><rect
     style="fill:#546a79"
     id="rect4566"
     height="132"
     width="512"
     y="-8.1712415e-014"
     x="0" /><g
     id="g4626"
     transform="matrix(1.024447,0,0,0.98495212,-7.9999973,13.857729)"><path
       d="m 403,130.1 -78.9,68 0,-48.6 -37.4,0 0,103.6 120.3,0 0,-32.2 -56.4,0 78.9,-68 -26.5,-22.8 z m 0,0"
       id="path4568"
       inkscape:connector-curvature="0"
       style="fill:#29abe2" /><path
       style="fill:#29abe2"
       inkscape:connector-curvature="0"
       id="path4578"
       d="m 192.3,198.1 -78.9,-68 -26.4,22.8 78.9,68 -56.4,0 0,32.2 120.3,0 0,-103.6 -37.4,0 0,48.6 z m 0,0"
       clip-path="url(#SVGID_2_)" /><path
       style="fill:#29abe2"
       inkscape:connector-curvature="0"
       id="path4580"
       d="m 108.4,299.5 0,32.2 56.4,0 -78.9,68 26.4,22.8 78.9,-68 0,48.6 37.4,0 0,-103.6 -120.2,0 z m 0,0"
       clip-path="url(#SVGID_2_)" /><path
       style="fill:#29abe2"
       inkscape:connector-curvature="0"
       id="path4582"
       d="m 406,331.7 0,-32.2 -120.3,0 0,103.6 37.4,0 0,-48.6 78.9,68 26.4,-22.8 -78.9,-68 56.5,0 z m 0,0"
       clip-path="url(#SVGID_2_)" /></g><rect
     style="fill:#b1d3ef"
     id="rect4584"
     height="20"
     width="512"
     y="492"
     x="0" /><g
     id="g4586"
     transform="matrix(0.85257549,0,0,1.0677618,-8.9094139,0.75975359)"><polygon
       style="fill:#04aef4"
       id="polygon4588"
       points="38.6,26.1 38.6,59.1 84.7,59.1 84.7,20.5 " /><polygon
       style="fill:#04aef4"
       id="polygon4590"
       points="84.7,101.9 84.7,63.3 38.6,63.3 38.6,96.4 " /><polygon
       style="fill:#04aef4"
       id="polygon4592"
       points="151.2,109.8 151.2,63.5 90.1,63.5 90.1,102.5 " /><polygon
       style="fill:#04aef4"
       id="polygon4594"
       points="90.1,19.8 90.1,58.7 151.2,58.7 151.2,12.4 " /></g></svg>