<svg xmlns="http://www.w3.org/2000/svg" xmlns:svg="http://www.w3.org/2000/svg" id="Layer_1" x="0" y="0" enable-background="new 0 0 512 512" version="1.1" viewBox="0 0 512 512" xml:space="preserve"><metadata id="metadata4459"/><rect style="fill:#edf0f1" id="rect4427" width="440" height="308" x="0" y="132"/><rect style="fill:#556b7a" id="rect4429" width="440" height="132" x="0" y="0"/><g id="g4475" transform="matrix(1.0892971,0,0,0.97600651,-43.024718,14.724685)"><path id="path4431" d="m 470.5,365.7 c 0,51.2 -38.6,92.8 -86.3,92.8 -47.7,0 -86.3,-41.6 -86.3,-92.8 0,-51.2 38.7,-92.7 86.3,-92.7 47.7,0 86.3,41.5 86.3,92.7 l 0,0 z m 0,0" style="fill:#d0e8f8"/><path id="path4433" d="m 415.5,279.4 -111.6,120 c 6.2,17.1 17,31.8 30.8,42.2 L 454.8,312.5 c -9.7,-14.8 -23.4,-26.4 -39.3,-33.1 l 0,0 z m 0,0" style="fill:#eaf7fe"/><path id="path4435" d="m 507.1,493.5 -52.6,-59.1 c 15.4,-18.2 24.9,-42.2 24.9,-68.6 0,-56.3 -42.7,-102.2 -95.1,-102.2 -52.5,0 -95.1,45.9 -95.1,102.2 0,56.4 42.6,102.2 95.1,102.2 21.5,0 41.3,-7.8 57.3,-20.8 l 52.9,59.4 c 1.7,1.9 4.1,2.9 6.4,2.9 2.2,0 4.3,-0.9 6.1,-2.6 3.3,-3.6 3.4,-9.6 0.1,-13.4 l 0,0 z M 306.7,365.7 c 0,-45.9 34.8,-83.2 77.5,-83.2 42.7,0 77.5,37.3 77.5,83.2 0,45.9 -34.8,83.3 -77.5,83.3 -42.8,0 -77.5,-37.3 -77.5,-83.3 l 0,0 z m 0,0" style="fill:#1072ba"/></g><rect id="rect4439" width="200" height="200" x="184" y="-240" transform="matrix(0,1,-1,0,0,0)" style="fill:#21ae5e"/><rect id="rect4441" width="156" height="20" x="184" y="-150" transform="matrix(0,1,-1,0,0,0)" style="fill:#fff"/><path id="path4443" d="M 140.00001,352 76,285.87413 89.514328,272 140.00001,324.13985 190.48567,272 204,285.87413 140.00001,352 Z m 0,0" style="fill:#fff"/><g id="g4445" transform="matrix(0.99173554,0,0,0.99521531,-10.31405,1.5598086)"><polygon style="fill:#38abe1" id="polygon4447" points="34.6 27.2 34.6 62.6 74.2 62.6 74.2 21.2"/><polygon style="fill:#38abe1" id="polygon4449" points="74.2 108.5 74.2 67.1 34.6 67.1 34.6 102.6"/><polygon style="fill:#38abe1" id="polygon4451" points="131.4 117 131.4 67.4 78.9 67.4 78.9 109.2"/><polygon style="fill:#38abe1" id="polygon4453" points="78.9 20.5 78.9 62.2 131.4 62.2 131.4 12.5"/></g></svg>