<svg xmlns="http://www.w3.org/2000/svg" xmlns:xlink="http://www.w3.org/1999/xlink" id="Layer_1" x="0" y="0" enable-background="new 0 0 512 512" version="1.1" viewBox="0 0 512 512" xml:space="preserve"><g><path fill="#EDF0F1" d="M474,412.2c-13.5,12.3-31.4,25.7-54.2,36.6c-67.6,32.1-132.1,19.2-158.1,12.4c-0.6-113.5-1.1-227-1.7-340.5 h214C474,120.6,474,120.6,474,412.2z"/><path fill="#EDF0F1" d="M225.6,341.5c-3.3,6-8.6,14-17.1,21.2c0,0-6.8,5.9-15.6,10.1c-67.6,32.1-132.1,19.2-158.1,12.4 c-0.6-113.5-1.1-227-1.7-340.5l226.8,5l-17.7,50.2c-1.9,0.8-4.7,2.2-7.1,5c0,0-2.4,2.8-3.7,6.7c-4.1,12.8-0.9,142.7-1.6,180.4 C229.7,302.7,228.9,320,225.6,341.5z"/><path fill="#1072BA" d="M158.5,260.1l60.5-52.5c0,0,4.7-4.2,0.4-8.8c-5.9-6.2-62.4-50.8-62.4-50.8s-7.5-8-7.5,2.6v27.4H62.6 c0,0-3.6-0.1-3.6,4.8v41.7c0,6.8,4.4,5.6,4.4,5.6h88v29.6C151.3,268.1,158.5,260.1,158.5,260.1L158.5,260.1z M158.5,260.1"/><g><path fill="#556B7A" d="M186.5,291.8c-2.8,0-5.3,1.1-7.4,3.2c-2,2-3.1,4.8-3.1,7.7l0.3,73.3H36.6V60.7h205.7v39 c4.1-2.9,9.1-4.6,14.6-4.6h15V45.8c0-5.3-4.3-9.8-9.3-9.8H17.8c-5.1,0-9.3,4.3-9.3,9.8v346.4c0,5.5,4.1,9.8,9.3,9.8h182.5 c2.7,0,5.2-1.1,7-3.2l23.4-27.5v-79.5H186.5z M186.5,291.8"/><path fill="#556B7A" d="M494.1,110H249.5c-5.2,0-9.3,4.5-9.3,9.8v346.4c0,5.5,4.1,9.8,9.3,9.8H432c2.7,0,5.2-1.1,6.9-3.2l62.2-73 c1.6-1.8,2.4-4.2,2.4-6.6V120C503.5,114.5,499.2,110,494.1,110L494.1,110z M474,365.8h-55.7c-2.8,0-5.4,1.1-7.4,3.2 c-2,1.9-3.1,4.7-3.1,7.7l0.3,73.3H268.4V134.7H474V365.8z M474,365.8"/></g><path fill="#1072BA" d="M355,349.5c0,0,7.5,7.8,7.5-2.7v-27.4h86.7c0,0,3.7,0.1,3.7-4.6v-41.7c0-6.9-4.3-5.6-4.3-5.6h-88.1v-29.6 c0-8.7-7.1-0.7-7.1-0.7l-60.6,52.5c0,0-4.8,4.3-0.4,8.8C298.5,304.7,355,349.5,355,349.5L355,349.5z M355,349.5"/></g></svg>