<?xml version="1.0" encoding="utf-8"?>
<!-- Generator: Adobe Illustrator 18.0.0, SVG Export Plug-In . SVG Version: 6.00 Build 0)  -->
<!DOCTYPE svg PUBLIC "-//W3C//DTD SVG 1.1//EN" "http://www.w3.org/Graphics/SVG/1.1/DTD/svg11.dtd">
<svg version="1.1" id="Layer_1" xmlns="http://www.w3.org/2000/svg" xmlns:xlink="http://www.w3.org/1999/xlink" x="0px" y="0px"
	 viewBox="0 0 512 512" enable-background="new 0 0 512 512" xml:space="preserve">
<g>
	<rect x="18.6" y="20.1" fill="#EDF0F1" width="474.8" height="471.8"/>
	<path fill="#556B7A" d="M6,6v500h500V6H6z M489.3,489.1H22.7V23h466.6V489.1z M489.3,489.1"/>
	<path fill="#1072BA" d="M139.3,150.1c4.6,0,8.3-3.8,8.3-8.5v-25.5h100V362H206c-4.6,0-8.3,3.8-8.3,8.4c0,4.7,3.8,8.5,8.3,8.5h100
		c4.6,0,8.3-3.8,8.3-8.5c0-4.7-3.7-8.4-8.3-8.4h-41.7V116.2h100v25.5c0,4.7,3.7,8.5,8.3,8.5c4.6,0,8.3-3.8,8.3-8.5v-33.9
		c0-4.7-3.7-8.5-8.3-8.5H139.3c-4.6,0-8.3,3.8-8.3,8.5v33.9C131,146.3,134.7,150.1,139.3,150.1L139.3,150.1z M139.3,150.1"/>
	<path fill="#1072BA" d="M397.7,395.8H114.3v50.9h283.4V395.8z M381,429.7H131v-17h250V429.7z M381,429.7"/>
</g>
</svg>
